<?xml version="1.0" encoding="utf-8"?><svg version="1.1" id="Layer_1" xmlns="http://www.w3.org/2000/svg" xmlns:xlink="http://www.w3.org/1999/xlink" x="0px" y="0px" viewBox="-293 385 24 24" style="enable-background:new -293 385 24 24;" xml:space="preserve">
<style type="text/css">
	.st0{opacity:0.6;}
	.st1{fill:#FFFFFF;}
</style>
<g class="st0">
	<g>
		<path class="st1" d="M-273.2,388.3l-1.1,1.7c2,1.6,3.3,4.2,3.3,7c0,2.8-1.3,5.3-3.3,7l1.1,1.7c2.6-2,4.2-5.1,4.2-8.7
			C-269,393.5-270.7,390.4-273.2,388.3z M-275.5,391.7l-1.1,1.7c1,0.9,1.6,2.2,1.6,3.6s-0.6,2.7-1.6,3.6l1.1,1.7
			c1.5-1.3,2.5-3.2,2.5-5.3C-273,394.9-274,393-275.5,391.7z M-281,386c-1.2,0-1.5,0.7-1.5,0.7s-3.1,3.4-5.2,4.8
			c-0.4,0.2-0.8,0.5-1.6,0.5h-1.7c-1.1,0-2,0.9-2,2v6c0,1.1,0.9,2,2,2h1.7c0.8,0,1.2,0.2,1.6,0.5c2.1,1.5,5.2,4.8,5.2,4.8
			s0.4,0.7,1.5,0.7c1.1,0,2-0.9,2-2v-18C-279,386.9-279.9,386-281,386z"/>
	</g>
</g>
</svg>
